<svg width="100" height="100" viewBox="0 0 24 24" xmlns="http://www.w3.org/2000/svg">
    <defs>
        <linearGradient id="baseBody" x1="0%" y1="0%" x2="100%" y2="100%"><stop offset="0%" stop-color="#38bdf8"/><stop offset="100%" stop-color="#0284c7"/></linearGradient>
        <filter id="dropShadow"><feGaussianBlur in="SourceAlpha" stdDeviation="1"/><feOffset dx="1" dy="2"/><feComponentTransfer><feFuncA type="linear" slope="0.3"/></feComponentTransfer><feMerge><feMergeNode/><feMergeNode in="SourceGraphic"/></feMerge></filter>
    </defs>
    <g filter="url(#dropShadow)">
        <path d="M3 16.5C3 15.67 3.67 15 4.5 15H21C21.83 15 22.5 15.67 22.5 16.5V17.5C22.5 18.33 21.83 19 21 19H4.5C3.67 19 3 18.33 3 17.5V16.5Z" fill="#fff"/>
        <path d="M3.5 18.5H20.5" stroke="#d1d5db" stroke-width="0.5" stroke-linecap="round"/>
        <path d="M5 17H6M8 17H9M11 17H12M14 17H15M17 17H18" stroke="#d1d5db" stroke-width="1" stroke-linecap="round"/>
        <path d="M4.5 15L10 9H18.5C20.16 9 21.5 10.34 21.5 12V14.5H4C4.16 14.66 4.33 14.83 4.5 15Z" fill="url(#baseBody)"/>
        <path d="M10 9.5 L12 11 L11 13 L13 14.5" stroke="#FFFFFF" stroke-width="0.8" fill="none" stroke-linecap="round"/>
        <path d="M12 9.5 L14 11 L13 13 L15 14.5" stroke="#FFFFFF" stroke-width="0.8" fill="none" stroke-linecap="round"/>
    </g>
</svg>
