<svg width="100" height="100" viewBox="0 0 24 24" xmlns="http://www.w3.org/2000/svg">
   <defs>
        <linearGradient id="easyBody" x1="0%" y1="0%" x2="100%" y2="100%"><stop offset="0%" stop-color="#4ade80"/><stop offset="100%" stop-color="#16a34a"/></linearGradient>
        <filter id="dropShadowEasy"><feGaussianBlur in="SourceAlpha" stdDeviation="1"/><feOffset dx="1" dy="2"/><feComponentTransfer><feFuncA type="linear" slope="0.3"/></feComponentTransfer><feMerge><feMergeNode/><feMergeNode in="SourceGraphic"/></feMerge></filter>
    </defs>
    <g filter="url(#dropShadowEasy)">
        <path d="M3 16.5C3 15.67 3.67 15 4.5 15H21C21.83 15 22.5 15.67 22.5 16.5V17.5C22.5 18.33 21.83 19 21 19H4.5C3.67 19 3 18.33 3 17.5V16.5Z" fill="#fff"/>
        <path d="M3.5 18.5H20.5" stroke="#a1a1aa" stroke-width="0.5" stroke-linecap="round"/>
        <path d="M4 16.5 C 5 15.5, 6 15.5, 7 16.5" stroke="#a1a1aa" stroke-width="0.5" fill="none" opacity="0.7"/>
        <path d="M19 16.5 C 20 15.5, 21 15.5, 22 16.5" stroke="#a1a1aa" stroke-width="0.5" fill="none" opacity="0.7"/>
        <path d="M4.5 15L10 9H18.5C20.16 9 21.5 10.34 21.5 12V14.5H4C4.16 14.66 4.33 14.83 4.5 15Z" fill="url(#easyBody)"/>
        <circle cx="14" cy="12.5" r="0.5" fill="#14532d" opacity="0.7"/>
        <circle cx="16" cy="12.5" r="0.5" fill="#14532d" opacity="0.7"/>
        <circle cx="18" cy="12.5" r="0.5" fill="#14532d" opacity="0.7"/>
        <path d="M10 9.5 L12 11 L11 13 L13 14.5" stroke="#FFFFFF" stroke-width="0.8" fill="none" stroke-linecap="round" opacity="0.8"/>
        <path d="M12 9.5 L14 11 L13 13 L15 14.5" stroke="#FFFFFF" stroke-width="0.8" fill="none" stroke-linecap="round" opacity="0.8"/>
    </g>
</svg>
