<svg width="100" height="100" viewBox="0 0 24 24" xmlns="http://www.w3.org/2000/svg">
    <defs>
        <linearGradient id="fartlekBody" x1="0%" y1="0%" x2="100%" y2="100%"><stop offset="0%" stop-color="#f87171"/><stop offset="100%" stop-color="#dc2626"/></linearGradient>
        <linearGradient id="thunderGradient" x1="0%" y1="0%" x2="100%" y2="100%"><stop offset="0%" stop-color="#fef08a"/><stop offset="100%" stop-color="#facc15"/></linearGradient>
        <filter id="dropShadow3"><feGaussianBlur in="SourceAlpha" stdDeviation="1.5"/><feOffset dx="1" dy="3"/><feComponentTransfer><feFuncA type="linear" slope="0.4"/></feComponentTransfer><feMerge><feMergeNode/><feMergeNode in="SourceGraphic"/></feMerge></filter>
    </defs>
    <g filter="url(#dropShadow3)">
        <path d="M4 18.5H20C21.1 18.5 22 17.6 22 16.5V16C22 15.45 21.55 15 21 15H3C2.45 15 2 15.45 2 16V16.5C2 17.6 2.9 18.5 4 18.5Z" fill="#fff"/>
        <path d="M4.5 18H20.5" stroke="#d1d5db" stroke-width="0.5" stroke-linecap="round"/>
        <path d="M4.5 15L10 9H18.5C20.16 9 21.5 10.34 21.5 12V14.5H4C4.16 14.66 4.33 14.83 4.5 15Z" fill="url(#fartlekBody)"/>
        <path d="M10 9.5 L12 11 L11 13 L13 14.5" stroke="#FFFFFF" stroke-width="0.8" fill="none" stroke-linecap="round"/>
        <path d="M12 9.5 L14 11 L13 13 L15 14.5" stroke="#FFFFFF" stroke-width="0.8" fill="none" stroke-linecap="round"/>
        <path d="M18 7 L12 13 H 16 L 10 20" stroke="url(#thunderGradient)" stroke-width="3" stroke-linecap="round" stroke-linejoin="round" fill="none"/>
    </g>
</svg>
