<svg width="120" height="120" viewBox="0 0 24 24" xmlns="http://www.w3.org/2000/svg">
    <defs>
        <linearGradient id="bedFrame" x1="0%" y1="0%" x2="0%" y2="100%"><stop offset="0%" stop-color="#a3a3a3"/><stop offset="100%" stop-color="#737373"/></linearGradient>
        <linearGradient id="comforter" x1="0%" y1="0%" x2="100%" y2="100%"><stop offset="0%" stop-color="#fafafa"/><stop offset="100%" stop-color="#e5e5e5"/></linearGradient>
        <linearGradient id="pillow" x1="0%" y1="0%" x2="100%" y2="100%"><stop offset="0%" stop-color="#f5f5f5"/><stop offset="100%" stop-color="#d4d4d4"/></linearGradient>
         <filter id="dropShadow7"><feGaussianBlur in="SourceAlpha" stdDeviation="1"/><feOffset dx="1" dy="2"/><feComponentTransfer><feFuncA type="linear" slope="0.3"/></feComponentTransfer><feMerge><feMergeNode/><feMergeNode in="SourceGraphic"/></feMerge></filter>
    </defs>
    <g filter="url(#dropShadow7)">
        <path d="M3 20H21V18H3V20Z" fill="url(#bedFrame)"/>
        <path d="M3 18H21V10C21 8.9 20.1 8 19 8H5C3.9 8 3 8.9 3 10V18Z" fill="url(#comforter)"/>
        <path d="M5 8C5 6.9 5.9 6 7 6H11C12.1 6 13 6.9 13 8V8H5Z" fill="url(#pillow)"/>
         <text x="16" y="7" font-family="monospace" font-size="2" fill="#737373" font-weight="bold">z</text>
         <text x="17.5" y="5.5" font-family="monospace" font-size="2.5" fill="#737373" font-weight="bold">Z</text>
         <text x="19.5" y="4" font-family="monospace" font-size="3" fill="#737373" font-weight="bold">z</text>
    </g>
</svg>
