<svg width="100" height="100" viewBox="0 0 24 24" xmlns="http://www.w3.org/2000/svg">
    <defs>
        <linearGradient id="tempoBody" x1="0%" y1="0%" x2="100%" y2="100%"><stop offset="0%" stop-color="#fbbf24"/><stop offset="100%" stop-color="#f59e0b"/></linearGradient>
        <linearGradient id="wingGradientReal" x1="0%" y1="0%" x2="100%" y2="100%"><stop offset="0%" stop-color="#ffffff"/><stop offset="100%" stop-color="#e5e7eb"/></linearGradient>
        <filter id="dropShadow4"><feGaussianBlur in="SourceAlpha" stdDeviation="1"/><feOffset dx="1" dy="2"/><feComponentTransfer><feFuncA type="linear" slope="0.3"/></feComponentTransfer><feMerge><feMergeNode/><feMergeNode in="SourceGraphic"/></feMerge></filter>
    </defs>
    <g filter="url(#dropShadow4)">
        <path d="M5 18.5H21C22.1 18.5 23 17.6 23 16.5V16C23 15.45 22.55 15 22 15H4C3.45 15 3 15.45 3 16V16.5C3 17.6 3.9 18.5 5 18.5Z" fill="#fff"/>
        <path d="M5.5 15L11 9H19.5C21.16 9 22.5 10.34 22.5 12V14.5H5C5.16 14.66 5.33 14.83 5.5 15Z" fill="url(#tempoBody)"/>
        <path d="M10 9.5 L12 11 L11 13 L13 14.5" stroke="#FFFFFF" stroke-width="0.8" fill="none" stroke-linecap="round"/>
        <path d="M12 9.5 L14 11 L13 13 L15 14.5" stroke="#FFFFFF" stroke-width="0.8" fill="none" stroke-linecap="round"/>
        <path d="M4 15.5 C 1 15, -1 12, 2 10 L 4.5 11.5" fill="url(#wingGradientReal)" stroke="#d1d5db" stroke-width="0.5"/>
        <path d="M3.5 13.5 C 0 13, -2 10, 1 8 L 3.5 9.5" fill="url(#wingGradientReal)" stroke="#d1d5db" stroke-width="0.5"/>
        <path d="M3 11.5 C -1 11, -3 8, 0 6 L 2.5 7.5" fill="url(#wingGradientReal)" stroke="#d1d5db" stroke-width="0.5"/>
    </g>
</svg>
